
<svg width="22" height="19" viewBox="0 0 22 19" fill="none" xmlns="http://www.w3.org/2000/svg">
<path d="M10.2797 0.0258121C10.1203 0.0492496 9.84377 0.114874 9.67033 0.180498C9.15939 0.358624 0.82033 4.98519 0.52033 5.25237C0.173455 5.56644 0.03283 5.86175 0.00470499 6.3305C-0.00935751 6.63987 0.00470499 6.75706 0.0937675 6.98675C0.271892 7.46019 0.548455 7.6805 1.84689 8.39769L2.97189 9.01644L3.00002 11.4914C3.01877 13.568 3.03752 14.0086 3.09846 14.2055C3.38908 15.1336 3.90002 15.8461 4.62189 16.343C4.88439 16.5258 5.41877 16.7742 5.78439 16.8821C6.04221 16.9617 6.37033 16.9664 9.78283 16.9805L13.4953 16.9992V17.7399C13.4953 18.4289 13.5047 18.4899 13.6031 18.6399C13.7531 18.8696 14.0953 19.0289 14.3438 18.9867C14.5922 18.9446 14.8828 18.6867 14.9485 18.4571C14.9719 18.3586 14.9953 17.993 14.9953 17.6414V16.9992L15.1735 16.9711C15.9375 16.8492 16.5891 16.568 17.1141 16.1321C17.6625 15.6774 18.0375 15.1242 18.2906 14.393L18.4406 13.9711L18.4547 11.5008L18.4688 9.0305L19.6031 8.40706C20.9063 7.68987 21.1875 7.46487 21.361 6.99612C21.5953 6.38206 21.4547 5.768 20.9766 5.30394C20.7188 5.05081 20.2641 4.78831 16.5422 2.7305C14.2594 1.46956 12.2672 0.377375 12.1078 0.307062C11.5688 0.053936 10.861 -0.0538769 10.2797 0.0258121ZM11.2453 1.57269C11.3344 1.59612 13.3313 2.67894 15.675 3.97269C18.8531 5.7305 19.9406 6.35394 19.9406 6.41487C19.9406 6.47581 19.2375 6.88831 17.2453 7.98987L14.55 9.48519L12.8391 7.78362C11.3438 6.293 11.1047 6.07269 10.9313 6.02581C10.575 5.93206 10.2375 6.08206 10.0735 6.40081C9.97033 6.60706 9.95627 6.79925 10.0266 6.99612C10.0547 7.06644 10.7766 7.82581 11.6297 8.67894L13.1766 10.2352L12.6938 10.5024C12.4266 10.6524 12.0422 10.8633 11.8406 10.9758C11.6344 11.0883 11.3766 11.2149 11.2641 11.2524C10.9922 11.3461 10.4344 11.3367 10.1625 11.2383C10.0453 11.1961 8.04846 10.1086 5.71877 8.81956C2.65314 7.12269 1.49533 6.46175 1.50471 6.41019C1.51408 6.368 2.05783 6.03987 2.71408 5.67425C8.44221 2.50081 10.1063 1.59612 10.3219 1.54456C10.575 1.47894 10.9641 1.493 11.2453 1.57269ZM7.04064 11.2617C8.32033 11.9696 9.52502 12.6071 9.71252 12.6727C10.0125 12.7805 10.125 12.7946 10.7063 12.7946C11.5313 12.7992 11.7563 12.7336 12.75 12.1852C13.1438 11.9696 13.4719 11.7914 13.4813 11.7914C13.4906 11.7914 13.4953 12.6258 13.4953 13.643V15.4946H10.0031C7.59845 15.4946 6.44064 15.4805 6.26721 15.443C5.48439 15.2742 4.82346 14.6696 4.58908 13.9055C4.5047 13.6336 4.49533 13.4649 4.49533 11.7399V9.86487L4.60314 9.92112C4.65939 9.94925 5.75627 10.5539 7.04064 11.2617ZM16.875 13.9008C16.6453 14.6555 16.0125 15.2508 15.2485 15.4289L14.9953 15.4852L15.0047 13.2117L15.0188 10.9383L15.9797 10.4039L16.9406 9.86956L16.9547 11.7352C16.9641 13.4742 16.9594 13.6149 16.875 13.9008Z" fill="white"/>
</svg>
