<svg width="27" height="29" viewBox="0 0 27 29" fill="none" xmlns="http://www.w3.org/2000/svg">
<rect width="26.6071" height="28.025" rx="13.3036" fill="#08A046"/>
<path d="M9.45824 8.52797C9.07803 8.61528 8.68655 8.90818 8.51193 9.2377C8.34013 9.55877 8.34858 9.30811 8.34858 14.0087C8.34858 17.7799 8.35421 18.3262 8.39082 18.4727C8.53164 19.0134 9.00198 19.4218 9.57935 19.5063C9.7765 19.5345 9.84127 19.5317 10.0243 19.4922C10.2891 19.4359 10.337 19.4106 11.5311 18.7205C12.0662 18.4107 13.6293 17.5095 15.0094 16.7124C16.3894 15.9182 17.5948 15.2113 17.6906 15.1437C17.8962 15.0001 18.099 14.7353 18.1835 14.4959C18.2567 14.2903 18.282 13.9158 18.2342 13.7017C18.1581 13.3609 17.9582 13.0567 17.6793 12.8652C17.5892 12.8005 16.933 12.4146 16.2204 12.0034C15.5079 11.5922 13.9053 10.6656 12.6577 9.94744C11.41 9.22644 10.3144 8.60964 10.2243 8.57585C10.0131 8.49699 9.68356 8.47727 9.45824 8.52797Z" fill="white"/>
</svg>
