<svg width="18" height="21" viewBox="0 0 18 21" fill="none" xmlns="http://www.w3.org/2000/svg">
<path d="M8.08061 0.0822754C7.01655 0.354149 6.12592 1.08071 5.64311 2.07446C5.33842 2.6979 5.2728 2.9979 5.2728 3.71509C5.2728 4.20728 5.29155 4.39477 5.37592 4.69009C5.55874 5.32759 5.93374 5.96978 6.38842 6.40571L6.59936 6.61196L6.14936 6.86509C5.54467 7.20727 5.24936 7.43227 4.75717 7.91978C4.52749 8.14477 4.33061 8.33228 4.32124 8.33228C4.30717 8.33228 3.86186 8.14009 3.33217 7.90571C2.24936 7.4229 2.1228 7.40415 1.79467 7.65259C1.50874 7.8729 1.49467 7.9479 1.49467 9.35884V10.6245L1.24624 10.737C0.711861 10.9807 0.229049 11.5807 0.0649865 12.1995C-0.188138 13.1838 0.318112 14.2807 1.23686 14.7307L1.49467 14.8573V15.7432C1.49467 16.6948 1.5228 16.8401 1.73374 17.037C1.91655 17.1963 8.80249 20.2385 8.99467 20.2385C9.18686 20.2385 16.0728 17.1963 16.2556 17.037C16.4665 16.8401 16.4947 16.6948 16.4947 15.7432V14.8573L16.7665 14.726C17.5869 14.3276 18.1025 13.3245 17.9619 12.4104C17.854 11.7213 17.3665 11.0416 16.7665 10.751L16.4994 10.6198L16.4853 9.29321C16.4712 8.03696 16.4665 7.95727 16.3728 7.8354C16.2228 7.62915 16.054 7.52602 15.8244 7.50259C15.6369 7.47915 15.5197 7.52134 14.6947 7.88696L13.7759 8.29946L13.3165 7.85415C12.815 7.36665 12.4634 7.11352 11.8447 6.7854L11.4322 6.56977L11.6244 6.38227C12.0509 5.96978 12.4353 5.31353 12.6134 4.69009C12.7634 4.16978 12.7634 3.2604 12.6134 2.74009C12.2619 1.51196 11.3853 0.583838 10.1759 0.161963C9.8103 0.0354004 9.6978 0.0166492 9.11186 0.00258636C8.5728 -0.00678825 8.38999 0.00727463 8.08061 0.0822754ZM9.53374 1.55884C10.7337 1.8729 11.479 3.10102 11.1744 4.26821C10.9634 5.07915 10.34 5.70727 9.53374 5.91821C8.35717 6.2229 7.12905 5.47759 6.81499 4.27759C6.3978 2.66978 7.92592 1.14165 9.53374 1.55884ZM10.0259 7.70884C10.5181 7.80727 11.165 8.08384 11.6244 8.38853C11.9947 8.63696 12.3181 8.91821 12.2712 8.95571C12.2197 9.00259 9.04624 10.3948 9.00405 10.3948C8.93374 10.3948 5.89155 9.04478 5.83999 8.99321C5.78842 8.94165 6.3228 8.50103 6.73061 8.25727C7.72905 7.66196 8.85405 7.46978 10.0259 7.70884ZM5.68061 10.587L8.24467 11.726V15.026C8.24467 17.6463 8.23061 18.3213 8.18842 18.3026C8.15561 18.2932 6.97436 17.7682 5.56342 17.1401L2.99467 16.001V15.4995V14.9979L3.50561 14.9792C4.05874 14.9651 4.16655 14.9229 4.3728 14.6417C4.46655 14.5151 4.47124 14.4588 4.47124 12.7385C4.47124 11.0182 4.46655 10.962 4.3728 10.8354C4.16655 10.5541 4.05874 10.512 3.50561 10.4979L2.99467 10.4791V9.94009C2.99467 9.52759 3.00874 9.40571 3.05561 9.42446C3.08374 9.43853 4.26499 9.95884 5.68061 10.587ZM14.9947 9.94477V10.4791L14.4837 10.4979C13.9306 10.512 13.8228 10.5541 13.6165 10.8354C13.5228 10.962 13.5181 11.0182 13.5181 12.7385C13.5181 14.4588 13.5228 14.5151 13.6165 14.6417C13.8228 14.9229 13.9306 14.9651 14.4837 14.9792L14.9947 14.9979V15.4995V16.0057L12.4306 17.1401C11.015 17.7682 9.83374 18.2885 9.80561 18.3026C9.75874 18.3213 9.74467 17.6463 9.74467 15.026V11.726L12.3369 10.5729C13.7572 9.9354 14.9384 9.41509 14.9619 9.41509C14.9806 9.4104 14.9947 9.64946 14.9947 9.94477ZM2.99467 12.7385V13.4885H2.54936C2.03842 13.4885 1.85561 13.4323 1.66811 13.212C1.44311 12.9448 1.44311 12.5323 1.66811 12.2651C1.85561 12.0448 2.01967 11.9932 2.53999 11.9885H2.99467V12.7385ZM16.1478 12.1104C16.3962 12.2932 16.4712 12.4432 16.4712 12.7385C16.4712 13.0338 16.3962 13.1838 16.1478 13.3667C16.04 13.451 15.9369 13.4698 15.5056 13.4792L14.9947 13.4979V12.7385V11.9791L15.5056 11.9979C15.9369 12.0073 16.04 12.026 16.1478 12.1104Z" fill="white"/>
</svg>
